<?xml version="1.0" standalone="no"?>
<!DOCTYPE svg PUBLIC "-//W3C//DTD SVG 20010904//EN"
 "http://www.w3.org/TR/2001/REC-SVG-20010904/DTD/svg10.dtd">
<svg version="1.0" xmlns="http://www.w3.org/2000/svg"
 width="500.000000pt" height="500.000000pt" viewBox="0 0 500.000000 500.000000"
 preserveAspectRatio="xMidYMid meet">
<metadata>
Created by potrace 1.14, written by Peter Selinger 2001-2017
</metadata>
<g transform="translate(0.000000,500.000000) scale(0.100000,-0.100000)"
fill="#000000" stroke="none">
<path d="M0 2500 l0 -2500 2500 0 2500 0 0 2500 0 2500 -2500 0 -2500 0 0
-2500z m2780 100 l0 -1091 -62 3 -63 3 -3 1088 -2 1087 65 0 65 0 0 -1090z
m-1404 117 c122 -298 227 -542 234 -542 6 0 112 244 233 542 l222 543 98 0 97
0 0 -660 0 -660 -75 0 -75 0 -1 508 c0 374 -3 503 -11 491 -6 -9 -102 -236
-213 -505 l-201 -489 -74 0 -74 0 -203 495 c-112 272 -208 499 -214 505 -5 5
-9 -179 -9 -498 l0 -507 -75 0 -75 0 0 660 0 660 98 0 97 -1 221 -542z m2428
523 c88 -28 161 -87 201 -165 38 -74 47 -194 20 -274 -20 -60 -96 -134 -156
-152 -42 -13 -52 -29 -19 -29 34 0 108 -40 149 -82 137 -136 125 -397 -24
-510 -97 -74 -139 -81 -487 -86 l-308 -4 0 661 0 661 279 0 c253 0 285 -2 345
-20z"/>
<path d="M3340 2899 l0 -221 188 4 c186 3 187 3 242 33 75 41 112 97 118 174
2 32 -1 75 -7 94 -15 46 -88 112 -137 126 -22 6 -121 11 -221 11 l-183 0 0
-221z"/>
<path d="M3340 2309 l0 -231 213 4 c223 5 255 10 315 55 101 75 96 246 -10
337 -67 58 -107 66 -325 66 l-193 0 0 -231z"/>
</g>
</svg>
